<?xml version="1.0" encoding="UTF-8"?>
<svg version="1.1" xmlns="http://www.w3.org/2000/svg" width="500" height="500">
<path d="M0 0 C3.91056754 3.72032371 7.12911653 7.64955856 10.3125 12 C13.86171699 16.81169015 17.44260834 21.58892888 21.12890625 26.296875 C42.91304986 54.19459275 42.91304986 54.19459275 41 71 C38.80375158 82.84691664 34.88066723 91.66639646 26 100 C25.01 100.33 24.02 100.66 23 101 C14.52388049 90.22867036 6.20595683 79.36027764 -1.859375 68.27734375 C-3.69994275 65.75069611 -5.56367747 63.257938 -7.515625 60.81640625 C-15.16439891 51.05713732 -18.34820818 40.38354183 -17 28 C-15.02227808 16.10097888 -9.52377596 7.2999501 0 0 Z " fill="#A1AAFF" transform="translate(250,116)"/>
<path d="M0 0 C3.45293547 1.37074643 5.17266958 4.60495709 7.25488281 7.54589844 C8.31344536 9.0012962 9.37341763 10.45566935 10.43457031 11.90917969 C11.00401367 12.69373535 11.57345703 13.47829102 12.16015625 14.28662109 C16.1467107 19.70930593 20.28585459 25.01876718 24.39648438 30.34765625 C35.33592583 44.6277207 41.27350115 55.35496805 40.00488281 73.79589844 C38.334134 82.68172808 34.11704105 90.16016613 28.00488281 96.79589844 C25.25097656 98.60449219 25.25097656 98.60449219 23.00488281 99.79589844 C16.56319102 92.18457697 10.55481149 84.28601031 4.60864258 76.28540039 C1.78276754 72.48584764 -1.04400735 68.69717205 -4.00683594 65.00292969 C-14.16498706 52.32639594 -18.4539169 40.97386803 -16.99511719 24.79589844 C-15.63042516 18.44813096 -8.35972283 -0.85520415 0 0 Z " fill="#5E17EB" transform="translate(226.9951171875,169.2041015625)"/>
</svg>
