<?xml version="1.0" encoding="UTF-8"?>
<svg version="1.1" xmlns="http://www.w3.org/2000/svg" width="85" height="150">
<path d="M0 0 C3.91056754 3.72032371 7.12911653 7.64955856 10.3125 12 C13.86171699 16.81169015 17.44260834 21.58892888 21.12890625 26.296875 C42.91304986 54.19459275 42.91304986 54.19459275 41 71 C38.80375158 82.84691664 34.88066723 91.66639646 26 100 C25.01 100.33 24.02 100.66 23 101 C14.52388049 90.22867036 6.20595683 79.36027764 -1.859375 68.27734375 C-3.69994275 65.75069611 -5.56367747 63.257938 -7.515625 60.81640625 C-15.16439891 51.05713732 -18.34820818 40.38354183 -17 28 C-15.02227808 16.10097888 -9.52377596 7.2999501 0 0 Z " fill="#A5ADFE" transform="translate(41,1)"/>
<path d="M0 0 C3.45293547 1.37074643 5.17266958 4.60495709 7.25488281 7.54589844 C8.31344536 9.0012962 9.37341763 10.45566935 10.43457031 11.90917969 C11.00401367 12.69373535 11.57345703 13.47829102 12.16015625 14.28662109 C16.1467107 19.70930593 20.28585459 25.01876718 24.39648438 30.34765625 C35.32908833 44.61879521 41.29014603 55.3615517 40.00488281 73.79589844 C38.42337977 81.83679343 35.07662836 90.1081368 29.00488281 95.79589844 C26.49969995 97.03452045 25.14086513 97.22903503 22.37207031 96.87011719 C16.77655426 94.33089786 13.50117197 88.64103939 10.00488281 83.79589844 C8.85218389 82.24734681 7.69710768 80.70056278 6.54003906 79.15527344 C3.52168831 75.10883109 0.54503705 71.0336788 -2.42089844 66.94873047 C-3.77201296 65.10100592 -5.14041296 63.26986318 -6.52636719 61.44824219 C-15.31434529 49.79105482 -18.30380804 39.30917303 -16.99511719 24.79589844 C-15.63042516 18.44813096 -8.35972283 -0.85520415 0 0 Z " fill="#631FEB" transform="translate(17.9951171875,54.2041015625)"/>
</svg>
